<svg width="79" height="80" xmlns="http://www.w3.org/2000/svg" xmlns:xlink="http://www.w3.org/1999/xlink" xml:space="preserve" overflow="hidden"><g transform="translate(-969 -262)"><g><g><g><g><path d="M74.724 32.825C74.3385 32.6331 72.3255 32.2664 70.6686 32.7001 70.3404 32.4289 69.8705 32.3677 69.4752 32.5851 68.4314 33.1652 67.3218 34.9845 65.6194 37.9125 64.7567 39.3974 63.7776 41.0803 63.2716 41.5561 62.4274 42.2757 56.979 41.3271 55.8811 40.9144 55.649 40.772 54.7433 39.955 54.0149 39.2979 52.1284 37.5974 50.7291 36.3633 49.9013 35.977 49.2257 35.6591 48.6894 35.4095 48.0039 35.7985 47.9075 35.8531 47.649 35.8706 47.4492 35.8765 45.5684 35.9262 44.5359 36.6984 44.4236 36.7862 44.403 36.8027 44.3944 36.8261 44.3748 36.8428 43.3648 36.6839 42.3946 36.2314 41.6137 35.4524 40.8219 34.6587 40.35 33.6682 40.1951 32.6386 40.2088 32.6239 40.2273 32.618 40.239 32.6026 40.3268 32.4914 41.1 31.458 41.1516 29.577 41.1573 29.3762 41.1749 29.1177 41.2295 29.0222 41.6185 28.3359 41.3806 27.8279 41.052 27.1278 40.6658 26.298 39.4326 24.9001 37.7332 23.0163 37.075 22.2871 36.2559 21.3793 36.1488 21.2204 35.1037 18.4866 35.1631 14.1185 35.4721 13.7578 35.948 13.2507 37.6288 12.2739 39.1119 11.4109 42.0417 9.70775 43.863 8.5982 44.4421 7.55183 44.6615 7.15702 44.5981 6.68603 44.3271 6.35848 44.7611 4.70098 44.3934 2.68748 44.2014 2.30333 44.0727 2.04587 43.7675 1.94837 43.5072 2.06922 43.246 2.19008 43.1328 2.50696 43.245 2.77226 43.3445 3.00713 43.6467 4.66565 43.3239 6.00042 43.0197 6.05501 42.7389 6.22563 42.5772 6.51813 42.2397 7.12647 39.6113 8.65423 38.0396 9.56806 36.1967 10.6395 34.6066 11.5638 33.9172 12.2981 31.939 14.4022 34.1541 21.9798 34.1833 22.0481 34.346 22.4292 34.7965 22.9451 36.1488 24.4436 37.154 25.5581 38.8368 27.4242 39.1187 28.0298 39.1626 28.1235 39.1997 28.2015 39.2289 28.2677 39.1118 28.5592 39.0348 28.9297 39.0184 29.5187 38.9891 30.5912 38.642 31.1597 38.5717 31.2648 37.8473 31.4725 37.0879 31.7066 36.2901 31.9717L33.9442 29.3498C33.796 29.184 33.5992 29.068 33.3806 29.0203 30.0471 28.2794 26.2183 27.3014 25.5897 26.9522 25.0689 26.609 23.3589 23.918 22.964 21.7751 22.8285 21.0408 22.9016 20.611 23.0148 20.4541 23.3591 19.9762 23.2497 19.3105 22.772 18.9662 22.2934 18.6218 21.6284 18.7303 21.2841 19.2089 20.7352 19.9713 20.6164 21.0682 20.9302 22.4703 21.4695 24.8766 23.3268 28.136 24.5435 28.8098 25.6803 29.4426 30.8821 30.6438 32.5834 31.0259L34.117 32.74C32.8076 33.2266 31.4571 33.7696 30.1078 34.3635L26.7001 32.8153C26.4417 32.6972 26.1492 32.6875 25.8861 32.7871 22.2347 34.1511 16.3708 35.8065 14.7679 35.2226 12.6589 34.4532 12.0777 32.3258 12.0554 32.241 11.9122 31.6707 11.3331 31.3226 10.7625 31.4658 10.1912 31.6082 9.84412 32.1874 9.98731 32.7587 10.0214 32.8932 10.8473 36.062 14.0366 37.2252 14.4823 37.3879 15.0456 37.4583 15.6903 37.4572 18.9799 37.4572 24.3262 35.6253 26.2164 34.9377L27.557 35.5471C26.2397 36.1945 24.9674 36.8839 23.7721 37.6004 23.6571 37.5136 23.5253 37.4473 23.3762 37.4133 22.9999 37.3247 19.6438 36.6031 17.8685 38.2743L17.463 38.6554C15.8563 40.1666 11.5876 44.1806 10.2266 45.1625 9.54993 45.6511 7.43892 45.9748 5.5679 46.119 5.90128 44.7959 6.08561 42.886 5.07837 41.2684 4.76733 40.7692 4.10922 40.6151 3.61002 40.9271 3.11084 41.2382 2.95775 41.8953 3.26877 42.3955 4.34712 44.1261 3.09815 46.7751 3.08647 46.7995 2.92371 47.1349 2.94707 47.5287 3.14791 47.8418 3.34392 48.147 3.68213 48.3313 4.04394 48.3313L4.06933 48.3313C5.00345 48.309 9.75071 48.1325 11.4715 46.8902 12.7702 45.9532 15.9661 42.9853 18.9212 40.2069L19.3249 39.8275C19.7129 39.4619 20.4335 39.3351 21.1541 39.3225 20.2532 39.9806 19.4341 40.6524 18.7536 41.3329 12.2922 47.7933 11.6537 57.6343 15.347 61.3282 19.0372 65.0182 28.8761 64.3809 35.3377 57.9188 36.1314 57.1251 36.9114 56.1483 37.6698 55.058 37.7508 55.9881 37.7001 57.159 37.1961 57.6953L36.921 57.9878C34.2662 60.8085 31.0944 64.2161 30.1298 65.5499 28.8887 67.2724 28.7123 72.0174 28.6887 72.9508 28.6798 73.3213 28.8651 73.6697 29.1762 73.8705 29.3517 73.983 29.5524 74.0408 29.7554 74.0408 29.9133 74.0408 30.0712 74.007 30.2175 73.9362 30.2438 73.9225 32.8949 72.6771 34.6263 73.7529 35.1255 74.0642 35.7826 73.9108 36.0936 73.4117 36.4046 72.9118 36.2525 72.2546 35.7523 71.9433 34.134 70.9345 32.2238 71.1184 30.9007 71.4532 31.0459 69.5831 31.3686 67.4733 31.8571 66.7972 32.8633 65.4043 36.9368 61.0782 38.4715 59.4492L38.7486 59.1546C40.4178 57.3783 39.6972 54.0211 39.6096 53.6448 39.5334 53.3173 39.3064 53.0763 39.0255 52.9418 39.789 51.6606 40.5183 50.2839 41.2028 48.8653L42.0841 50.8046C41.2612 53.0647 38.8024 60.2667 39.7949 62.983 40.959 66.1732 44.1268 66.9994 44.2614 67.0325 44.3482 67.054 44.435 67.0644 44.5206 67.0644 44.9974 67.0644 45.4332 66.7407 45.554 66.2564 45.6964 65.6864 45.3493 65.1072 44.7779 64.9645 44.7565 64.9587 42.5782 64.3923 41.7973 62.2521 41.2112 60.6492 42.8698 54.7862 44.2337 51.1351 44.3322 50.8708 44.3223 50.5775 44.2055 50.3211L42.4934 46.5567C42.4584 46.4806 42.4007 46.4252 42.352 46.3617 42.9088 45.0777 43.4214 43.7955 43.8846 42.5524L45.9925 44.4399C46.3757 46.1393 47.5769 51.3429 48.2096 52.4804 48.889 53.7022 52.1535 55.5595 54.5598 56.0958 55.0648 56.208 55.5279 56.2644 55.9522 56.2644 56.703 56.2644 57.3251 56.0879 57.8105 55.7378 58.2874 55.3927 58.3955 54.7267 58.0512 54.2499 57.7062 53.7731 57.0402 53.6639 56.5633 54.0092 56.4082 54.1242 55.9814 54.1963 55.2471 54.0617 53.1051 53.6687 50.4102 51.9576 50.0717 51.4447 49.7167 50.8071 48.7389 46.9762 47.9978 43.6415 47.9491 43.4241 47.8341 43.2271 47.6683 43.0788L44.6564 40.3828C44.8593 39.7851 45.0444 39.2098 45.2171 38.6532 45.3925 38.6319 45.5642 38.5832 45.7172 38.4729 45.7416 38.4544 46.3325 38.0372 47.4976 38.006 48.0826 37.9895 48.4521 37.9144 48.7486 37.7945 48.8149 37.8247 48.8939 37.8618 48.9893 37.9068 49.5939 38.1885 51.4619 39.8733 52.5783 40.8795 54.1568 42.3028 54.5976 42.6822 54.9681 42.8401 55.0159 42.8607 58.6624 43.9291 61.6013 43.9281 62.9069 43.9281 64.0728 43.7176 64.7203 43.109 65.4557 42.4186 66.3819 40.8266 67.4544 38.9828 68.367 37.4132 69.8945 34.7844 70.5009 34.448 70.7928 34.2862 70.9644 34.0054 71.0177 33.7013 72.3515 33.3775 74.0109 33.6807 74.2391 33.7774 74.5004 33.9089 74.8221 33.8038 74.9541 33.5395 75.0938 33.2762 74.9866 32.9565 74.7233 32.8247Z" stroke="#000000" stroke-width="0.0650117" stroke-linecap="butt" stroke-linejoin="miter" stroke-miterlimit="4" stroke-opacity="1" fill="#000000" fill-rule="nonzero" fill-opacity="1" transform="matrix(1 0 0 1.01282 970 263)"/><path d="M42.4391 29.7609C41.1161 31.085 41.1161 33.2318 42.4391 34.5539 43.7633 35.879 45.91 35.879 47.2342 34.5549 47.7276 34.0616 48.0355 33.4532 48.1615 32.8164 50.4984 31.2681 48.3448 28.7351 48.3448 28.7351 48.4705 29.7668 48.0358 30.1393 47.6544 30.2776 47.5336 30.0963 47.3932 29.9226 47.2332 29.7619 47.0996 29.6283 46.9534 29.5181 46.8061 29.4128 46.9486 29.0354 47.3229 28.6114 48.3448 28.7361 48.3448 28.7361 45.8925 26.6584 44.3405 28.8171 43.6453 28.9177 42.9745 29.2256 42.4392 29.7609Z" stroke="#000000" stroke-width="0.0650117" stroke-linecap="butt" stroke-linejoin="miter" stroke-miterlimit="4" stroke-opacity="1" fill="#000000" fill-rule="nonzero" fill-opacity="1" transform="matrix(1 0 0 1.01282 970 263)"/></g></g></g></g></g></svg>