<?xml version="1.0" encoding="UTF-8"?>
<svg width="1200pt" height="1200pt" version="1.1" viewBox="0 0 1200 1200" xmlns="http://www.w3.org/2000/svg">
 <path d="m1149.6 505c-5.9258-2.9531-36.898-8.5938-62.387-1.9219-5.0547-4.1719-12.285-5.1133-18.359-1.7695-16.066 8.9258-33.137 36.914-59.324 81.961-13.273 22.844-28.336 48.734-36.121 56.055-12.988 11.07-96.809-3.5234-113.7-9.8711-3.5703-2.1914-17.504-14.762-28.711-24.871-29.023-26.16-50.551-45.148-63.285-51.09-10.395-4.8906-18.645-8.7305-29.191-2.7461-1.4844 0.83984-5.4609 1.1094-8.5352 1.1992-28.934 0.76562-44.82 12.645-46.547 13.996-0.31641 0.25391-0.44922 0.61328-0.75 0.87109-15.539-2.4453-30.465-9.4062-42.48-21.391-12.18-12.211-19.441-27.449-21.824-43.289 0.21094-0.22656 0.49609-0.31641 0.67578-0.55469 1.3516-1.7109 13.246-17.609 14.039-46.547 0.089843-3.0898 0.35937-7.0664 1.1992-8.5352 5.9844-10.559 2.3242-18.375-2.7305-29.145-5.9414-12.766-24.914-34.273-51.059-63.254-10.125-11.219-22.727-25.184-24.375-27.629-16.078-42.059-15.164-109.26-10.41-114.81 7.3203-7.8008 33.18-22.828 55.996-36.105 45.074-26.203 73.094-43.273 82.004-59.371 3.375-6.0742 2.3984-13.32-1.7695-18.359 6.6758-25.5 1.0195-56.477-1.9336-62.387-1.9805-3.9609-6.6758-5.4609-10.68-3.6016-4.0195 1.8594-5.7617 6.7344-4.0352 10.816 1.5312 3.6133 6.1797 29.129 1.2148 49.664-4.6797 0.83984-9 3.4648-11.488 7.9648-5.1914 9.3594-45.629 32.863-69.809 46.922-28.352 16.484-52.816 30.703-63.422 42-30.434 32.371 3.6445 148.95 4.0938 150 2.5039 5.8633 9.4336 13.801 30.238 36.855 15.465 17.145 41.355 45.855 45.691 55.172 0.67578 1.4414 1.2461 2.6406 1.6953 3.6602-1.8008 4.4844-2.9844 10.184-3.2383 19.246-0.44922 16.5-5.7891 25.246-6.8711 26.863-11.145 3.1953-22.828 6.7969-35.102 10.875l-36.09-40.336c-2.2812-2.5508-5.3086-4.3359-8.6719-5.0703-51.285-11.398-110.19-26.445-119.86-31.816-8.0117-5.2812-34.32-46.68-40.395-79.648-2.0859-11.297-0.96094-17.91 0.78125-20.324 5.2969-7.3516 3.6133-17.594-3.7344-22.891-7.3633-5.2969-17.594-3.6289-22.891 3.7344-8.4453 11.73-10.273 28.605-5.4453 50.176 8.2969 37.02 36.871 87.164 55.59 97.531 17.488 9.7344 97.516 28.215 123.69 34.094l23.594 26.371c-20.145 7.4844-40.922 15.84-61.68 24.977l-52.426-23.82c-3.9766-1.8164-8.4766-1.9648-12.523-0.43359-56.176 20.984-146.39 46.453-171.05 37.469-32.445-11.836-41.387-44.566-41.73-45.871-2.2031-8.7734-11.113-14.129-19.891-11.926-8.7891 2.1914-14.129 11.102-11.926 19.891 0.52344 2.0703 13.23 50.82 62.297 68.715 6.8555 2.5039 15.523 3.5859 25.441 3.5703 50.609 0 132.86-28.184 161.94-38.762l20.625 9.375c-20.266 9.9609-39.84 20.566-58.23 31.59-1.7695-1.3359-3.7969-2.3555-6.0898-2.8789-5.7891-1.3633-57.422-12.465-84.734 13.246l-6.2383 5.8633c-24.719 23.25-90.391 85.004-111.33 100.11-10.41 7.5156-42.887 12.496-71.672 14.715 5.1289-20.355 7.9648-49.738-7.5312-74.625-4.7852-7.6797-14.91-10.051-22.59-5.25-7.6797 4.7852-10.035 14.895-5.25 22.59 16.59 26.625-2.625 67.379-2.8047 67.754-2.5039 5.1602-2.1445 11.219 0.94531 16.035 3.0156 4.6953 8.2188 7.5312 13.785 7.5312h0.39062c14.371-0.34375 87.406-3.0586 113.88-22.172 19.98-14.414 69.148-60.074 114.61-102.82l6.2109-5.8359c5.9688-5.625 17.055-7.5742 28.141-7.7695-13.859 10.125-26.461 20.461-36.93 30.93-99.406 99.391-109.23 250.79-52.41 307.62 56.773 56.773 208.14 46.965 307.55-52.453 12.211-12.211 24.211-27.238 35.879-44.012 1.2461 14.309 0.46484 32.324-7.2891 40.574l-4.2305 4.5c-40.844 43.395-89.641 95.82-104.48 116.34-19.094 26.504-21.809 99.496-22.172 113.86-0.13672 5.6992 2.7148 11.055 7.5 14.145 2.6992 1.7383 5.7891 2.625 8.9102 2.625 2.4297 0 4.8594-0.52344 7.1094-1.6055 0.40625-0.21094 41.191-19.379 67.828-2.8203 7.6797 4.7852 17.789 2.4297 22.574-5.25 4.7852-7.6953 2.4453-17.805-5.25-22.59-24.898-15.523-54.285-12.691-74.641-7.5469 2.2344-28.77 7.1992-61.23 14.715-71.625 15.48-21.434 78.148-87.988 101.76-113.05l4.2617-4.5312c25.68-27.328 14.594-78.977 13.246-84.766-1.1719-5.0391-4.6641-8.7461-8.9844-10.816 11.746-19.711 22.965-40.891 33.496-62.715l13.559 29.836c-12.66 34.77-50.488 145.57-35.219 187.36 17.91 49.078 66.645 61.785 68.715 62.297 1.3359 0.32812 2.6719 0.49609 3.9883 0.49609 7.3359 0 14.039-4.9805 15.898-12.434 2.1914-8.7734-3.1484-17.684-11.941-19.875-0.32812-0.089843-33.84-8.8047-45.855-41.73-9.0156-24.66 16.5-114.86 37.484-171.03 1.5156-4.0664 1.3633-8.5781-0.43359-12.523l-26.34-57.914c-0.53906-1.1719-1.4258-2.0234-2.1758-3 8.5664-19.754 16.453-39.48 23.578-58.605l32.43 29.039c5.8945 26.145 24.375 106.2 34.109 123.7 10.453 18.797 60.676 47.371 97.695 55.621 7.7695 1.7266 14.895 2.5938 21.422 2.5938 11.551 0 21.121-2.7148 28.59-8.1016 7.3359-5.3086 9-15.555 3.7031-22.891-5.3086-7.3359-15.555-9.0156-22.891-3.7031-2.3867 1.7695-8.9531 2.8789-20.25 0.80859-32.953-6.0469-74.414-32.371-79.621-40.262-5.4609-9.8086-20.504-68.746-31.906-120.05-0.75-3.3438-2.5195-6.375-5.0703-8.6562l-46.336-41.477c3.1211-9.1953 5.9688-18.047 8.625-26.609 2.6992-0.32812 5.3398-1.0781 7.6953-2.7734 0.375-0.28516 9.4648-6.7031 27.391-7.1836 9-0.25391 14.684-1.4102 19.246-3.2539 1.0195 0.46484 2.2344 1.0352 3.7031 1.7266 9.3008 4.3359 38.039 30.254 55.215 45.734 24.285 21.898 31.066 27.734 36.766 30.164 0.73438 0.31641 56.836 16.754 102.05 16.738 20.086 0 38.023-3.2383 47.984-12.602 11.309-10.621 25.559-35.113 42.059-63.48 14.039-24.148 37.547-64.59 46.875-69.766 4.4844-2.4883 7.125-6.8086 7.9492-11.488 20.52-4.9805 46.051-0.31641 49.559 1.1719 4.0195 2.0234 8.9688 0.40625 10.996-3.6602 2.1562-4.0508 0.50781-8.9688-3.543-10.996z"/>
 <path d="m652.91 457.86c-20.355 20.371-20.355 53.398 0 73.738 20.371 20.387 53.398 20.387 73.77 0.015625 7.5898-7.5898 12.328-16.949 14.266-26.746 35.953-23.82 2.8203-62.789 2.8203-62.789 1.9336 15.871-4.7539 21.602-10.621 23.73-1.8594-2.7891-4.0195-5.4609-6.4805-7.9336-2.0547-2.0547-4.3047-3.75-6.5703-5.3711 2.1914-5.8047 7.9492-12.328 23.672-10.41 0 0-37.727-31.965-61.605 1.2461-10.695 1.5469-21.016 6.2852-29.25 14.52z"/>
</svg>
